<svg xmlns="http://www.w3.org/2000/svg" viewBox="-19.3 103.1 580.6 390.8" font-family="-apple-system, Helvetica, Arial, sans-serif">
<rect x="-19.3" y="103.1" width="580.6" height="390.8" fill="#ffffff"/>
<path d="M 227.4 238.0 A 88.6 88.6 0 0 0 302.7 365.8" fill="none" stroke="#475569" stroke-width="1.6"/>
<polygon points="302.7,365.8 290.6,365.0 295.4,356.2" fill="#475569"/>
<circle cx="235.1" cy="329.5" r="8" fill="#ffffff" stroke="#cbd5e1"/>
<text x="235.1" y="333.5" text-anchor="middle" font-size="12" fill="#0f172a">+</text>
<path d="M 285.2 237.5 A 91.6 91.6 0 0 0 430.0 203.1" fill="none" stroke="#475569" stroke-width="1.6"/>
<polygon points="430.0,203.1 424.0,213.6 418.1,205.4" fill="#475569"/>
<circle cx="350.6" cy="259.8" r="8" fill="#ffffff" stroke="#cbd5e1"/>
<text x="350.6" y="263.8" text-anchor="middle" font-size="12" fill="#0f172a">+</text>
<path d="M 283.3 365.5 A 98.8 98.8 0 0 0 126.3 399.5" fill="none" stroke="#475569" stroke-width="1.6"/>
<polygon points="126.3,399.5 132.4,389.0 138.2,397.2" fill="#475569"/>
<circle cx="209.4" cy="340.2" r="8" fill="#ffffff" stroke="#cbd5e1"/>
<text x="209.4" y="344.2" text-anchor="middle" font-size="12" fill="#0f172a">+</text>
<path d="M 130.2 399.9 A 115.1 115.1 0 0 0 223.9 238.0" fill="none" stroke="#475569" stroke-width="1.6"/>
<polygon points="223.9,238.0 228.0,249.4 218.1,248.6" fill="#475569"/>
<circle cx="215.0" cy="348.7" r="8" fill="#ffffff" stroke="#cbd5e1"/>
<text x="215.0" y="352.7" text-anchor="middle" font-size="12" fill="#0f172a">+</text>
<path d="M 424.7 203.2 A 113.6 113.6 0 0 0 335.8 365.0" fill="none" stroke="#475569" stroke-width="1.6"/>
<polygon points="335.8,365.0 331.7,353.6 341.7,354.4" fill="#475569"/>
<circle cx="345.0" cy="251.3" r="8" fill="#ffffff" stroke="#cbd5e1"/>
<text x="345.0" y="255.3" text-anchor="middle" font-size="12" fill="#0f172a">−</text>
<rect x="160.8" y="197.1" width="129.6" height="40.0" rx="12" fill="#ffffff" stroke="#475569" stroke-width="1.6"/>
<text x="225.6" y="221.1" text-anchor="middle" font-size="13" font-weight="600" fill="#0f172a">Coffee intake</text>
<rect x="284.0" y="365.9" width="100.8" height="34.0" rx="12" fill="#ffffff" stroke="#cbd5e1" stroke-width="1.3"/>
<text x="334.4" y="386.9" text-anchor="middle" font-size="13" font-weight="600" fill="#0f172a">Alertness</text>
<rect x="40.7" y="399.9" width="122.4" height="34.0" rx="12" fill="#ffffff" stroke="#cbd5e1" stroke-width="1.3"/>
<text x="101.9" y="420.9" text-anchor="middle" font-size="13" font-weight="600" fill="#0f172a">Productivity</text>
<rect x="414.9" y="163.1" width="86.4" height="40.0" rx="12" fill="#ffffff" stroke="#475569" stroke-width="1.6"/>
<text x="458.1" y="187.1" text-anchor="middle" font-size="13" font-weight="600" fill="#0f172a">Fatigue</text>
<circle cx="220.6" cy="339.0" r="15" fill="#14b8a6"/>
<text x="220.6" y="344.0" text-anchor="middle" font-size="15" font-weight="700" fill="#ffffff">R</text>
<circle cx="280.0" cy="300.0" r="15" fill="#f59e0b"/>
<text x="280.0" y="305.0" text-anchor="middle" font-size="15" font-weight="700" fill="#ffffff">B</text>
</svg>
